# Blender 5.0.1
# www.blender.org
o Cube
v -1.000000 -1.000000 1.507813
v -1.000000 1.000000 1.507813
v -1.000000 -1.000000 -1.507813
v -1.000000 1.000000 -1.507813
v 1.000000 -1.000000 1.507813
v 1.000000 1.000000 1.507813
v 1.000000 -1.000000 -1.507813
v 1.000000 1.000000 -1.507813
v -1.000000 -1.000000 1.354023
v -1.000000 1.000000 1.354023
v 1.000000 -1.000000 1.354023
v 1.000000 1.000000 1.354023
v -1.000000 0.843935 1.507813
v -1.000000 0.843935 -1.507813
v 1.000000 0.843935 -1.507813
v 1.000000 0.843935 1.507813
v -1.000000 0.843935 1.354023
v -1.000000 -0.834215 -1.507813
v 1.000000 -0.834215 -1.507813
v 1.000000 -0.834215 1.507813
v -1.000000 -0.834215 1.354023
v -1.000000 -0.834215 1.507813
v -1.000000 1.000000 -0.758718
v 1.000000 -1.000000 -0.758718
v -1.000000 -1.000000 -0.758718
v 1.000000 1.000000 -0.758718
v -1.000000 0.843935 -0.758718
v -1.000000 -0.834215 -0.758718
v 0.889508 0.758642 -0.651337
v 0.889508 0.758642 1.246642
v 0.889508 -0.748922 1.246642
v 0.889508 -0.748922 -0.651337
v 1.000000 0.881469 1.410616
v 0.962467 0.843935 1.354023
v 1.000000 -0.871749 1.410616
v 0.962467 -0.834215 1.354023
v 0.962467 0.843935 -0.758718
v 1.000000 0.881469 -0.815311
v 1.000000 -0.871749 -0.815311
v 0.962467 -0.834215 -0.758718
v -1.000000 0.004860 1.507813
v -1.000000 0.004860 -1.507813
v 1.000000 0.004860 -1.507813
v 1.000000 0.004860 1.507813
v -1.000000 0.004860 1.354023
v -1.000000 0.004860 -0.758718
v 0.889508 0.004860 1.354023
v 0.889508 0.004860 -0.758718
v 1.000000 0.004860 1.410616
v 0.962467 0.004860 1.354023
v 0.962467 0.004860 -0.758718
v 1.000000 0.004860 -0.815311
v -1.000000 -1.000000 0.297652
v 1.000000 1.000000 0.297652
v -1.000000 1.000000 0.297652
v 1.000000 -1.000000 0.297652
v -1.000000 0.843935 0.297652
v -1.000000 -0.834215 0.297652
v 0.889508 0.843935 0.297652
v 0.889508 -0.834215 0.297652
v 1.000000 0.881469 0.297652
v 0.962467 0.843935 0.297652
v 0.962467 -0.834215 0.297652
v 1.000000 -0.871749 0.297652
v 0.986188 0.004860 0.297652
v -1.000000 0.004860 0.297652
vn -1.0000 -0.0000 -0.0000
vn -0.0000 -0.0000 -1.0000
vn -0.0000 -0.0000 1.0000
vn -0.0000 -1.0000 -0.0000
vn -0.0000 1.0000 -0.0000
vn 0.9958 0.0130 0.0911
vn 0.7071 -0.7071 -0.0000
vn 0.8334 -0.0000 -0.5527
vn 0.7071 0.7071 -0.0000
vn 0.8334 -0.0000 0.5527
vn 1.0000 -0.0000 -0.0000
vn -0.0000 0.1410 -0.9900
vn -0.0000 -0.9960 -0.0895
vn -0.0000 0.9960 0.0895
vn -0.0000 -0.1410 0.9900
vn 0.8271 -0.0000 0.5620
vn 0.8271 -0.0000 -0.5620
vn 0.9934 -0.1145 0.0103
vn 0.9934 -0.1145 -0.0103
vn 0.7599 0.6500 -0.0000
vn 0.7599 -0.6500 -0.0000
vn 0.9958 0.0130 -0.0911
vn 0.9934 0.1145 0.0103
vn -0.0000 0.1410 0.9900
vn -0.0000 -0.1410 -0.9900
vn 0.9958 -0.0130 0.0911
vn 0.9958 -0.0130 -0.0911
vn -0.0000 0.9960 -0.0895
vn -0.0000 -0.9960 0.0895
vn 0.9934 0.1145 -0.0103
vt 0.390588 0.307908
vt 0.321283 0.286542
vt 0.390696 0.285648
vt 0.155100 0.015700
vt 0.316469 0.052009
vt 0.154960 0.049987
vt 0.355940 0.044444
vt 0.341255 0.294444
vt 0.341255 0.044444
vt 0.375000 0.737251
vt 0.125000 0.750000
vt 0.125000 0.737251
vt 0.090179 0.381867
vt 0.075234 0.012575
vt 0.089567 0.012512
vt 0.188634 0.381428
vt 0.188022 0.012073
vt 0.375000 0.649676
vt 0.125000 0.649676
vt 0.600611 0.305204
vt 0.586469 0.283128
vt 0.600719 0.282944
vt 0.587052 0.163450
vt 0.601303 0.163267
vt 0.262302 0.294444
vt 0.262302 0.044444
vt 0.315715 0.236352
vt 0.154205 0.234330
vt 0.321866 0.166865
vt 0.391279 0.165971
vt 0.391863 0.046293
vt 0.322565 0.023541
vt 0.391978 0.022648
vt 0.153451 0.418673
vt 0.314811 0.457118
vt 0.153302 0.455096
vt 0.183349 0.044444
vt 0.167749 0.294444
vt 0.167749 0.044444
vt 0.601886 0.043589
vt 0.587751 0.020127
vt 0.602001 0.019943
vt 0.489749 0.045033
vt 0.489864 0.021387
vt 0.488582 0.284388
vt 0.489166 0.164711
vt 0.375000 0.500000
vt 0.125000 0.562101
vt 0.125000 0.500000
vt 0.356906 0.380678
vt 0.286478 0.011634
vt 0.356294 0.011323
vt 0.488474 0.306648
vt 0.769944 0.799220
vt 0.637376 0.968662
vt 0.637377 0.799220
vt 0.769944 0.976242
vt 0.637376 0.968662
vt 0.769944 0.968662
vt 0.630274 0.799220
vt 0.637377 0.629779
vt 0.637376 0.799221
vt 0.769944 0.622199
vt 0.769944 0.629779
vt 0.902512 0.629779
vt 0.909614 0.799220
vt 0.902512 0.799220
vt 0.637376 1.000178
vt 0.630274 0.976242
vt 0.618077 0.968662
vt 0.618077 0.799220
vt 0.637377 0.629779
vt 0.618077 1.000178
vt 0.637376 0.596300
vt 0.769944 0.596300
vt 0.630275 0.622199
vt 0.618077 0.596300
vt 0.996519 1.000178
vt 0.909614 0.976242
vt 0.996519 0.968662
vt 0.996519 0.799220
vt 0.902512 0.968662
vt 0.996519 0.596300
vt 0.909614 0.622199
vt 0.902512 0.596300
vt 0.996519 0.629779
vt 0.618077 0.629779
vt 0.322450 0.047187
vt 0.314960 0.420695
vt 0.183349 0.294444
vt 0.587635 0.043773
vt 0.902512 1.000178
vt 0.586360 0.305387
vt 0.375000 0.562101
vt 0.287090 0.380990
vt 0.321174 0.308802
vt 0.316609 0.017722
vt 0.355940 0.294444
vt 0.375000 0.750000
vt 0.075846 0.381931
vt 0.769944 1.000178
s 0
f 23/1/1 14/2/1 27/3/1
f 4/4/2 15/5/2 14/6/2
f 6/7/3 13/8/3 16/9/3
f 11/10/4 1/11/4 9/12/4
f 10/13/5 6/14/5 12/15/5
f 55/16/5 12/15/5 54/17/5
f 56/18/4 9/12/4 53/19/4
f 2/20/1 17/21/1 13/22/1
f 13/22/1 45/23/1 41/24/1
f 16/9/3 41/25/3 44/26/3
f 14/6/2 43/27/2 42/28/2
f 27/3/1 42/29/1 46/30/1
f 28/31/1 3/32/1 25/33/1
f 18/34/2 7/35/2 3/36/2
f 20/37/3 1/38/3 5/39/3
f 22/40/1 9/41/1 1/42/1
f 58/43/1 25/33/1 53/44/1
f 57/45/1 46/30/1 66/46/1
f 7/47/4 25/48/4 3/49/4
f 4/50/5 26/51/5 8/52/5
f 55/53/1 27/3/1 57/45/1
f 65/54/6 30/55/6 47/56/6
f 61/57/7 34/58/7 62/59/7
f 49/60/8 36/61/8 50/62/8
f 36/61/9 64/63/9 63/64/9
f 40/65/10 52/66/10 51/67/10
f 61/57/11 12/68/11 33/69/11
f 49/60/11 16/70/11 44/71/11
f 50/62/12 31/72/12 47/56/12
f 62/59/13 30/55/13 59/59/13
f 33/69/11 6/73/11 16/70/11
f 64/63/11 11/74/11 56/75/11
f 35/76/11 5/77/11 11/74/11
f 63/64/14 32/65/14 60/64/14
f 8/78/11 38/79/11 15/80/11
f 15/80/11 52/66/11 43/81/11
f 51/67/15 29/82/15 48/67/15
f 7/83/11 39/84/11 24/85/11
f 51/67/16 32/65/16 40/65/16
f 19/86/11 52/66/11 39/84/11
f 50/62/17 30/55/17 34/58/17
f 49/60/11 20/87/11 35/76/11
f 37/82/10 52/66/10 38/79/10
f 49/60/8 34/58/8 33/69/8
f 65/54/18 31/72/18 60/64/18
f 66/46/1 28/31/1 58/43/1
f 46/30/1 18/88/1 28/31/1
f 42/28/2 19/89/2 18/34/2
f 44/26/3 22/90/3 20/37/3
f 41/24/1 21/91/1 22/40/1
f 45/23/1 58/43/1 21/91/1
f 32/65/19 65/54/19 60/64/19
f 63/64/20 31/72/20 36/61/20
f 24/85/11 64/63/11 56/75/11
f 62/59/21 29/82/21 37/82/21
f 26/92/11 61/57/11 38/79/11
f 40/65/9 64/63/9 39/84/9
f 61/57/7 37/82/7 38/79/7
f 29/82/22 65/54/22 48/67/22
f 10/93/1 57/45/1 17/21/1
f 17/21/1 66/46/1 45/23/1
f 21/91/1 53/44/1 9/41/1
f 24/94/4 53/19/4 25/48/4
f 23/95/5 54/17/5 26/51/5
f 23/1/1 4/96/1 14/2/1
f 4/4/2 8/97/2 15/5/2
f 6/7/3 2/98/3 13/8/3
f 11/10/4 5/99/4 1/11/4
f 10/13/5 2/100/5 6/14/5
f 55/16/5 10/13/5 12/15/5
f 56/18/4 11/10/4 9/12/4
f 2/20/1 10/93/1 17/21/1
f 13/22/1 17/21/1 45/23/1
f 16/9/3 13/8/3 41/25/3
f 14/6/2 15/5/2 43/27/2
f 27/3/1 14/2/1 42/29/1
f 28/31/1 18/88/1 3/32/1
f 18/34/2 19/89/2 7/35/2
f 20/37/3 22/90/3 1/38/3
f 22/40/1 21/91/1 9/41/1
f 58/43/1 28/31/1 25/33/1
f 57/45/1 27/3/1 46/30/1
f 7/47/4 24/94/4 25/48/4
f 4/50/5 23/95/5 26/51/5
f 55/53/1 23/1/1 27/3/1
f 65/54/23 59/59/23 30/55/23
f 61/57/7 33/69/7 34/58/7
f 49/60/8 35/76/8 36/61/8
f 36/61/9 35/76/9 64/63/9
f 40/65/10 39/84/10 52/66/10
f 61/57/11 54/101/11 12/68/11
f 49/60/11 33/69/11 16/70/11
f 50/62/17 36/61/17 31/72/17
f 62/59/21 34/58/21 30/55/21
f 33/69/11 12/68/11 6/73/11
f 64/63/11 35/76/11 11/74/11
f 35/76/11 20/87/11 5/77/11
f 63/64/20 40/65/20 32/65/20
f 8/78/11 26/92/11 38/79/11
f 15/80/11 38/79/11 52/66/11
f 51/67/16 37/82/16 29/82/16
f 7/83/11 19/86/11 39/84/11
f 51/67/24 48/67/24 32/65/24
f 19/86/11 43/81/11 52/66/11
f 50/62/25 47/56/25 30/55/25
f 49/60/11 44/71/11 20/87/11
f 37/82/10 51/67/10 52/66/10
f 49/60/8 50/62/8 34/58/8
f 65/54/26 47/56/26 31/72/26
f 66/46/1 46/30/1 28/31/1
f 46/30/1 42/29/1 18/88/1
f 42/28/2 43/27/2 19/89/2
f 44/26/3 41/25/3 22/90/3
f 41/24/1 45/23/1 21/91/1
f 45/23/1 66/46/1 58/43/1
f 32/65/27 48/67/27 65/54/27
f 63/64/28 60/64/28 31/72/28
f 24/85/11 39/84/11 64/63/11
f 62/59/29 59/59/29 29/82/29
f 26/92/11 54/101/11 61/57/11
f 40/65/9 63/64/9 64/63/9
f 61/57/7 62/59/7 37/82/7
f 29/82/30 59/59/30 65/54/30
f 10/93/1 55/53/1 57/45/1
f 17/21/1 57/45/1 66/46/1
f 21/91/1 58/43/1 53/44/1
f 24/94/4 56/18/4 53/19/4
f 23/95/5 55/16/5 54/17/5
